<svg xmlns="http://www.w3.org/2000/svg" width="19.092" height="18.246" viewBox="0 0 19.092 18.246">
  <g id="_004-linkedin-letters" data-name="004-linkedin-letters" transform="translate(0 -9.708)">
    <g id="Сгруппировать_3" data-name="Сгруппировать 3" transform="translate(0 9.708)">
      <rect id="Прямоугольник_74" data-name="Прямоугольник 74" width="4.102" height="12.317" transform="translate(0.236 5.929)"/>
      <path id="Контур_14" data-name="Контур 14" d="M162.8,140.742a4.414,4.414,0,0,0-3.418-1.411,4.926,4.926,0,0,0-1.423.193,3.229,3.229,0,0,0-1.081.541,4.631,4.631,0,0,0-1.187,1.3v-1.751H151.6l.013.6q.013.6.013,3.679t-.025,8.042h4.089v-6.874a3,3,0,0,1,.137-1.007,2.64,2.64,0,0,1,.789-1.063,2.013,2.013,0,0,1,1.311-.429,1.768,1.768,0,0,1,1.572.74,3.6,3.6,0,0,1,.5,2.045v6.587h4.089v-7.059A5.918,5.918,0,0,0,162.8,140.742Z" transform="translate(-144.997 -133.688)"/>
      <path id="Контур_15" data-name="Контур 15" d="M2.312,9.708a2.34,2.34,0,0,0-1.672.6A2,2,0,0,0,0,11.833,2.037,2.037,0,0,0,.621,13.35a2.243,2.243,0,0,0,1.641.609h.025a2.342,2.342,0,0,0,1.684-.609A1.968,1.968,0,0,0,4.6,11.833a2.073,2.073,0,0,0-.634-1.523A2.273,2.273,0,0,0,2.312,9.708Z" transform="translate(0 -9.708)"/>
    </g>
  </g>
</svg>