<svg id="_003-instagram-logo" data-name="003-instagram-logo" xmlns="http://www.w3.org/2000/svg" width="21.99" height="21.99" viewBox="0 0 21.99 21.99">
  <path id="Контур_11" data-name="Контур 11" d="M15.922,0H6.068A6.075,6.075,0,0,0,0,6.069v9.853A6.075,6.075,0,0,0,6.068,21.99h9.853a6.075,6.075,0,0,0,6.069-6.069V6.069A6.075,6.075,0,0,0,15.922,0Zm4.118,15.922a4.122,4.122,0,0,1-4.118,4.117H6.068a4.122,4.122,0,0,1-4.117-4.117V6.069A4.122,4.122,0,0,1,6.068,1.951h9.853a4.122,4.122,0,0,1,4.118,4.117v9.853Z"/>
  <path id="Контур_12" data-name="Контур 12" d="M46.634,40.97A5.666,5.666,0,1,0,52.3,46.636,5.673,5.673,0,0,0,46.634,40.97Zm0,9.381a3.715,3.715,0,1,1,3.715-3.715A3.719,3.719,0,0,1,46.634,50.351Z" transform="translate(-35.639 -35.641)"/>
  <path id="Контур_13" data-name="Контур 13" d="M120.352,28.251a1.43,1.43,0,1,0,1.012.419A1.436,1.436,0,0,0,120.352,28.251Z" transform="translate(-103.453 -24.576)"/>
</svg>