<svg xmlns="http://www.w3.org/2000/svg" width="20" height="16.369" viewBox="0 0 20 16.369">
  <path id="_002-twitter" data-name="002-twitter" d="M7.462,16.369a17.161,17.161,0,0,1-2.651-.21,12.44,12.44,0,0,1-3.626-1.32L0,14.191l1.283-.422c1.4-.461,2.256-.747,3.312-1.2A4.405,4.405,0,0,1,2.33,9.95l-.3-.906.245.037a4.451,4.451,0,0,1-.557-.687A4.219,4.219,0,0,1,1,5.886l.056-.791.473.183a4.426,4.426,0,0,1-.429-1.2A4.575,4.575,0,0,1,1.591,1L2,.239,2.555.9A10.152,10.152,0,0,0,9.132,4.6a3.934,3.934,0,0,1,.239-2.09A3.913,3.913,0,0,1,10.962.69,4.778,4.778,0,0,1,13.734.009a4.429,4.429,0,0,1,2.723,1.123,9.14,9.14,0,0,0,1-.333c.219-.082.466-.176.776-.282L19.373.124l-.745,2.128c.049,0,.1-.008.153-.01L20,2.186l-.721.986c-.041.056-.052.072-.067.095-.058.088-.13.2-1.12,1.518A1.864,1.864,0,0,0,17.744,6a11.483,11.483,0,0,1-.627,4.618,8.173,8.173,0,0,1-2.194,3.25,9.69,9.69,0,0,1-4.593,2.221,14.14,14.14,0,0,1-2.869.281Zm0,0" transform="translate(0 0)"/>
</svg>