<svg xmlns="http://www.w3.org/2000/svg" width="11.678" height="14.56" viewBox="0 0 11.678 14.56">
  <g id="placeholder" transform="translate(-47.2)">
    <g id="Сгруппировать_2" data-name="Сгруппировать 2" transform="translate(47.2)">
      <path id="Контур_8" data-name="Контур 8" d="M53.036,0A5.844,5.844,0,0,0,47.2,5.836a5.744,5.744,0,0,0,.1,1.1c0,.021.015.085.04.2a5.748,5.748,0,0,0,.391,1.151,16.36,16.36,0,0,0,5.046,6.19.413.413,0,0,0,.519,0,16.391,16.391,0,0,0,5.046-6.19,5.683,5.683,0,0,0,.391-1.151c.024-.11.037-.174.04-.2a6,6,0,0,0,.1-1.1A5.853,5.853,0,0,0,53.036,0Zm4.92,6.788c0,.006,0,.012,0,.018s-.012.061-.027.131v.006a4.846,4.846,0,0,1-.339,1s0,.009-.006.012a15.268,15.268,0,0,1-4.545,5.665,15.268,15.268,0,0,1-4.545-5.665s0-.009-.006-.012a5.169,5.169,0,0,1-.339-1V6.938c-.018-.07-.024-.116-.027-.131s0-.012,0-.021a5.012,5.012,0,1,1,9.841,0Z" transform="translate(-47.2)" fill="#ff254d"/>
      <path id="Контур_9" data-name="Контур 9" d="M120.706,71.9a3.706,3.706,0,1,0,3.706,3.706A3.711,3.711,0,0,0,120.706,71.9Zm0,6.587a2.881,2.881,0,1,1,2.881-2.881A2.885,2.885,0,0,1,120.706,78.487Z" transform="translate(-114.869 -69.705)" fill="#ff254d"/>
    </g>
  </g>
</svg>
