<svg xmlns="http://www.w3.org/2000/svg" width="22.157" height="22.19" viewBox="0 0 22.157 22.19">
  <g id="phone-call" transform="translate(-0.344 0)">
    <g id="Сгруппировать_1" data-name="Сгруппировать 1" transform="translate(0.344 0)">
      <path id="Контур_1" data-name="Контур 1" d="M17.865,39.868a2.182,2.182,0,0,0-1.583-.726,2.257,2.257,0,0,0-1.6.721L13.2,41.339c-.122-.066-.244-.126-.361-.187-.169-.084-.328-.164-.464-.248a16.085,16.085,0,0,1-3.854-3.512,9.489,9.489,0,0,1-1.264-2c.384-.351.74-.717,1.087-1.068.131-.131.262-.267.393-.4a2.149,2.149,0,0,0,0-3.241L7.459,29.41c-.145-.145-.3-.3-.436-.445-.281-.29-.576-.59-.88-.871a2.217,2.217,0,0,0-1.569-.688,2.294,2.294,0,0,0-1.592.688l-.009.009L1.38,29.71A3.426,3.426,0,0,0,.364,31.888a8.21,8.21,0,0,0,.6,3.475,20.165,20.165,0,0,0,3.583,5.976,22.039,22.039,0,0,0,7.339,5.746A11.434,11.434,0,0,0,16.006,48.3c.1,0,.2.009.3.009A3.529,3.529,0,0,0,19,47.151c0-.009.014-.014.019-.023a10.646,10.646,0,0,1,.82-.848c.2-.192.407-.393.609-.6a2.336,2.336,0,0,0,.707-1.62,2.251,2.251,0,0,0-.721-1.606ZM19.542,44.8s0,0,0,0c-.183.2-.37.375-.571.571a12.314,12.314,0,0,0-.9.937,2.258,2.258,0,0,1-1.761.745c-.07,0-.145,0-.215,0a10.158,10.158,0,0,1-3.653-1.1,20.8,20.8,0,0,1-6.913-5.414,19.013,19.013,0,0,1-3.372-5.615,6.687,6.687,0,0,1-.525-2.932A2.15,2.15,0,0,1,2.275,30.6l1.6-1.6a1.065,1.065,0,0,1,.712-.333A1,1,0,0,1,5.267,29l.014.014c.286.267.557.543.843.838.145.15.3.3.445.454l1.279,1.279a.894.894,0,0,1,0,1.452c-.136.136-.267.272-.4.4-.393.4-.768.777-1.176,1.143-.009.009-.019.014-.023.023A.955.955,0,0,0,6,35.667l.014.042a10.265,10.265,0,0,0,1.513,2.468l0,0a17.189,17.189,0,0,0,4.159,3.784,6.4,6.4,0,0,0,.576.314c.169.084.328.164.464.248.019.009.037.023.056.033a1.015,1.015,0,0,0,.464.117,1,1,0,0,0,.712-.323l1.6-1.6a1.059,1.059,0,0,1,.707-.351.954.954,0,0,1,.674.342l.009.009,2.58,2.58A.926.926,0,0,1,19.542,44.8Z" transform="translate(-0.344 -26.123)" fill="#ff254d"/>
      <path id="Контур_2" data-name="Контур 2" d="M245.464,87.179a6.027,6.027,0,0,1,4.908,4.908.628.628,0,0,0,.623.525.836.836,0,0,0,.108-.009.633.633,0,0,0,.52-.731,7.288,7.288,0,0,0-5.938-5.938.636.636,0,0,0-.731.515A.625.625,0,0,0,245.464,87.179Z" transform="translate(-233.488 -81.901)" fill="#ff254d"/>
      <path id="Контур_3" data-name="Контур 3" d="M259.288,9.789A12,12,0,0,0,249.51.01a.631.631,0,1,0-.206,1.246,10.719,10.719,0,0,1,8.739,8.739.628.628,0,0,0,.623.525.835.835,0,0,0,.108-.009A.62.62,0,0,0,259.288,9.789Z" transform="translate(-237.141 0)" fill="#ff254d"/>
    </g>
  </g>
</svg>